<?xml version="1.0" encoding="UTF-8"?>
<!DOCTYPE svg PUBLIC "-//W3C//DTD SVG 1.1//EN" "http://www.w3.org/Graphics/SVG/1.1/DTD/svg11.dtd">
<svg xmlns="http://www.w3.org/2000/svg" version="1.1" width="64px" height="64px" style="shape-rendering:geometricPrecision; text-rendering:geometricPrecision; image-rendering:optimizeQuality; fill-rule:evenodd; clip-rule:evenodd" xmlns:xlink="http://www.w3.org/1999/xlink">
<g><path style="opacity:0.99" fill="#11acaa" d="M 33.5,5.5 C 32.1779,5.33003 31.0113,5.66337 30,6.5C 29.5005,12.4908 29.3338,18.4908 29.5,24.5C 25.8183,24.3347 22.1516,24.5014 18.5,25C 16.5,28.3333 14.5,28.3333 12.5,25C 10.8659,24.5065 9.19919,24.3398 7.5,24.5C 7.5,17.5 7.5,10.5 7.5,3.5C 16.5645,2.86356 25.2312,3.53022 33.5,5.5 Z"/></g>
<g><path style="opacity:0.979" fill="#feac07" d="M 33.5,5.5 C 40.8333,5.5 48.1667,5.5 55.5,5.5C 55.5,12.5 55.5,19.5 55.5,26.5C 52.3695,25.9078 50.0361,26.9078 48.5,29.5C 47.8333,29.5 47.1667,29.5 46.5,29.5C 46.0472,28.5416 45.3805,27.7083 44.5,27C 39.0675,27.1184 34.0675,26.2851 29.5,24.5C 29.3338,18.4908 29.5005,12.4908 30,6.5C 31.0113,5.66337 32.1779,5.33003 33.5,5.5 Z"/></g>
<g><path style="opacity:1" fill="#f4eddf" d="M 40.5,7.5 C 44.2231,7.22329 46.5564,8.88996 47.5,12.5C 46.6015,15.3944 45.2681,18.0611 43.5,20.5C 42.1046,18.081 42.6046,16.081 45,14.5C 46,9.83333 44.3333,8.5 40,10.5C 39.9219,12.6565 39.7552,14.6565 39.5,16.5C 36.7447,13.1796 37.078,10.1796 40.5,7.5 Z"/></g>
<g><path style="opacity:1" fill="#e3eeed" d="M 12.5,12.5 C 15.8606,13.2032 16.1939,14.5365 13.5,16.5C 11.3576,15.5629 11.0243,14.2296 12.5,12.5 Z"/></g>
<g><path style="opacity:1" fill="#f6e2ba" d="M 42.5,22.5 C 44.337,22.6395 44.6704,23.3061 43.5,24.5C 42.7025,24.0431 42.3691,23.3764 42.5,22.5 Z"/></g>
<g><path style="opacity:0.998" fill="#4fd8d6" d="M -0.5,29.5 C 15.1667,29.5 30.8333,29.5 46.5,29.5C 47.1667,29.5 47.8333,29.5 48.5,29.5C 53.5,29.5 58.5,29.5 63.5,29.5C 63.5,38.1667 63.5,46.8333 63.5,55.5C 42.1667,55.5 20.8333,55.5 -0.5,55.5C -0.5,46.8333 -0.5,38.1667 -0.5,29.5 Z"/></g>
<g><path style="opacity:1" fill="#eaf1f1" d="M 2.5,31.5 C 3.83333,31.5 5.16667,31.5 6.5,31.5C 6.5,32.8333 6.5,34.1667 6.5,35.5C 5.16667,35.5 3.83333,35.5 2.5,35.5C 2.5,34.1667 2.5,32.8333 2.5,31.5 Z"/></g>
<g><path style="opacity:1" fill="#eaf1f1" d="M 8.5,31.5 C 9.83333,31.5 11.1667,31.5 12.5,31.5C 12.5,32.8333 12.5,34.1667 12.5,35.5C 11.1667,35.5 9.83333,35.5 8.5,35.5C 8.5,34.1667 8.5,32.8333 8.5,31.5 Z"/></g>
<g><path style="opacity:1" fill="#eaf1f1" d="M 14.5,31.5 C 15.8333,31.5 17.1667,31.5 18.5,31.5C 18.5,32.8333 18.5,34.1667 18.5,35.5C 17.1667,35.5 15.8333,35.5 14.5,35.5C 14.5,34.1667 14.5,32.8333 14.5,31.5 Z"/></g>
<g><path style="opacity:1" fill="#eaf1f1" d="M 20.5,31.5 C 21.8333,31.5 23.1667,31.5 24.5,31.5C 24.5,32.8333 24.5,34.1667 24.5,35.5C 23.1667,35.5 21.8333,35.5 20.5,35.5C 20.5,34.1667 20.5,32.8333 20.5,31.5 Z"/></g>
<g><path style="opacity:1" fill="#eaf1f1" d="M 26.5,31.5 C 27.8333,31.5 29.1667,31.5 30.5,31.5C 30.5,32.8333 30.5,34.1667 30.5,35.5C 29.1667,35.5 27.8333,35.5 26.5,35.5C 26.5,34.1667 26.5,32.8333 26.5,31.5 Z"/></g>
<g><path style="opacity:1" fill="#eaf1f1" d="M 32.5,31.5 C 33.8333,31.5 35.1667,31.5 36.5,31.5C 36.5,32.8333 36.5,34.1667 36.5,35.5C 35.1667,35.5 33.8333,35.5 32.5,35.5C 32.5,34.1667 32.5,32.8333 32.5,31.5 Z"/></g>
<g><path style="opacity:1" fill="#eaf1f1" d="M 38.5,31.5 C 39.8333,31.5 41.1667,31.5 42.5,31.5C 42.5,32.8333 42.5,34.1667 42.5,35.5C 41.1667,35.5 39.8333,35.5 38.5,35.5C 38.5,34.1667 38.5,32.8333 38.5,31.5 Z"/></g>
<g><path style="opacity:1" fill="#eaf1f1" d="M 44.5,31.5 C 45.8333,31.5 47.1667,31.5 48.5,31.5C 48.5,32.8333 48.5,34.1667 48.5,35.5C 47.1667,35.5 45.8333,35.5 44.5,35.5C 44.5,34.1667 44.5,32.8333 44.5,31.5 Z"/></g>
<g><path style="opacity:1" fill="#eaf1f1" d="M 50.5,31.5 C 51.8333,31.5 53.1667,31.5 54.5,31.5C 54.5,32.8333 54.5,34.1667 54.5,35.5C 53.1667,35.5 51.8333,35.5 50.5,35.5C 50.5,34.1667 50.5,32.8333 50.5,31.5 Z"/></g>
<g><path style="opacity:1" fill="#eaf1f1" d="M 56.5,31.5 C 57.8333,31.5 59.1667,31.5 60.5,31.5C 60.5,32.8333 60.5,34.1667 60.5,35.5C 59.1667,35.5 57.8333,35.5 56.5,35.5C 56.5,34.1667 56.5,32.8333 56.5,31.5 Z"/></g>
<g><path style="opacity:1" fill="#edf2f1" d="M 2.5,37.5 C 4.5,37.5 6.5,37.5 8.5,37.5C 8.5,38.8333 8.5,40.1667 8.5,41.5C 6.5,41.5 4.5,41.5 2.5,41.5C 2.5,40.1667 2.5,38.8333 2.5,37.5 Z"/></g>
<g><path style="opacity:1" fill="#eaf1f1" d="M 10.5,37.5 C 11.8333,37.5 13.1667,37.5 14.5,37.5C 14.5,38.8333 14.5,40.1667 14.5,41.5C 13.1667,41.5 11.8333,41.5 10.5,41.5C 10.5,40.1667 10.5,38.8333 10.5,37.5 Z"/></g>
<g><path style="opacity:1" fill="#eaf1f1" d="M 16.5,37.5 C 17.8333,37.5 19.1667,37.5 20.5,37.5C 20.5,38.8333 20.5,40.1667 20.5,41.5C 19.1667,41.5 17.8333,41.5 16.5,41.5C 16.5,40.1667 16.5,38.8333 16.5,37.5 Z"/></g>
<g><path style="opacity:1" fill="#eaf1f1" d="M 22.5,37.5 C 23.8333,37.5 25.1667,37.5 26.5,37.5C 26.5,38.8333 26.5,40.1667 26.5,41.5C 25.1667,41.5 23.8333,41.5 22.5,41.5C 22.5,40.1667 22.5,38.8333 22.5,37.5 Z"/></g>
<g><path style="opacity:1" fill="#eaf1f1" d="M 28.5,37.5 C 29.8333,37.5 31.1667,37.5 32.5,37.5C 32.5,38.8333 32.5,40.1667 32.5,41.5C 31.1667,41.5 29.8333,41.5 28.5,41.5C 28.5,40.1667 28.5,38.8333 28.5,37.5 Z"/></g>
<g><path style="opacity:1" fill="#eaf1f1" d="M 34.5,37.5 C 35.8333,37.5 37.1667,37.5 38.5,37.5C 38.5,38.8333 38.5,40.1667 38.5,41.5C 37.1667,41.5 35.8333,41.5 34.5,41.5C 34.5,40.1667 34.5,38.8333 34.5,37.5 Z"/></g>
<g><path style="opacity:1" fill="#eaf1f1" d="M 40.5,37.5 C 41.8333,37.5 43.1667,37.5 44.5,37.5C 44.5,38.8333 44.5,40.1667 44.5,41.5C 43.1667,41.5 41.8333,41.5 40.5,41.5C 40.5,40.1667 40.5,38.8333 40.5,37.5 Z"/></g>
<g><path style="opacity:1" fill="#eaf1f1" d="M 46.5,37.5 C 47.8333,37.5 49.1667,37.5 50.5,37.5C 50.5,38.8333 50.5,40.1667 50.5,41.5C 49.1667,41.5 47.8333,41.5 46.5,41.5C 46.5,40.1667 46.5,38.8333 46.5,37.5 Z"/></g>
<g><path style="opacity:1" fill="#eef2f2" d="M 52.5,37.5 C 55.1667,37.5 57.8333,37.5 60.5,37.5C 60.5,38.8333 60.5,40.1667 60.5,41.5C 57.8333,41.5 55.1667,41.5 52.5,41.5C 52.5,40.1667 52.5,38.8333 52.5,37.5 Z"/></g>
<g><path style="opacity:1" fill="#eef2f2" d="M 2.5,43.5 C 5.16667,43.5 7.83333,43.5 10.5,43.5C 10.5,44.8333 10.5,46.1667 10.5,47.5C 7.83333,47.5 5.16667,47.5 2.5,47.5C 2.5,46.1667 2.5,44.8333 2.5,43.5 Z"/></g>
<g><path style="opacity:1" fill="#eaf1f1" d="M 12.5,43.5 C 13.8333,43.5 15.1667,43.5 16.5,43.5C 16.5,44.8333 16.5,46.1667 16.5,47.5C 15.1667,47.5 13.8333,47.5 12.5,47.5C 12.5,46.1667 12.5,44.8333 12.5,43.5 Z"/></g>
<g><path style="opacity:1" fill="#eaf1f1" d="M 18.5,43.5 C 19.8333,43.5 21.1667,43.5 22.5,43.5C 22.5,44.8333 22.5,46.1667 22.5,47.5C 21.1667,47.5 19.8333,47.5 18.5,47.5C 18.5,46.1667 18.5,44.8333 18.5,43.5 Z"/></g>
<g><path style="opacity:1" fill="#eaf1f1" d="M 24.5,43.5 C 25.8333,43.5 27.1667,43.5 28.5,43.5C 28.5,44.8333 28.5,46.1667 28.5,47.5C 27.1667,47.5 25.8333,47.5 24.5,47.5C 24.5,46.1667 24.5,44.8333 24.5,43.5 Z"/></g>
<g><path style="opacity:1" fill="#eaf1f1" d="M 30.5,43.5 C 31.8333,43.5 33.1667,43.5 34.5,43.5C 34.5,44.8333 34.5,46.1667 34.5,47.5C 33.1667,47.5 31.8333,47.5 30.5,47.5C 30.5,46.1667 30.5,44.8333 30.5,43.5 Z"/></g>
<g><path style="opacity:1" fill="#eaf1f1" d="M 36.5,43.5 C 37.8333,43.5 39.1667,43.5 40.5,43.5C 40.5,44.8333 40.5,46.1667 40.5,47.5C 39.1667,47.5 37.8333,47.5 36.5,47.5C 36.5,46.1667 36.5,44.8333 36.5,43.5 Z"/></g>
<g><path style="opacity:1" fill="#eaf1f1" d="M 42.5,43.5 C 43.8333,43.5 45.1667,43.5 46.5,43.5C 46.5,44.8333 46.5,46.1667 46.5,47.5C 45.1667,47.5 43.8333,47.5 42.5,47.5C 42.5,46.1667 42.5,44.8333 42.5,43.5 Z"/></g>
<g><path style="opacity:1" fill="#eaf1f1" d="M 48.5,43.5 C 49.8333,43.5 51.1667,43.5 52.5,43.5C 52.5,44.8333 52.5,46.1667 52.5,47.5C 51.1667,47.5 49.8333,47.5 48.5,47.5C 48.5,46.1667 48.5,44.8333 48.5,43.5 Z"/></g>
<g><path style="opacity:1" fill="#edf2f1" d="M 54.5,43.5 C 56.5,43.5 58.5,43.5 60.5,43.5C 60.5,44.8333 60.5,46.1667 60.5,47.5C 58.5,47.5 56.5,47.5 54.5,47.5C 54.5,46.1667 54.5,44.8333 54.5,43.5 Z"/></g>
<g><path style="opacity:1" fill="#eaf1f1" d="M 2.5,49.5 C 3.83333,49.5 5.16667,49.5 6.5,49.5C 6.5,50.8333 6.5,52.1667 6.5,53.5C 5.16667,53.5 3.83333,53.5 2.5,53.5C 2.5,52.1667 2.5,50.8333 2.5,49.5 Z"/></g>
<g><path style="opacity:1" fill="#eaf1f1" d="M 8.5,49.5 C 9.83333,49.5 11.1667,49.5 12.5,49.5C 12.5,50.8333 12.5,52.1667 12.5,53.5C 11.1667,53.5 9.83333,53.5 8.5,53.5C 8.5,52.1667 8.5,50.8333 8.5,49.5 Z"/></g>
<g><path style="opacity:1" fill="#f1f2f2" d="M 14.5,49.5 C 25.8333,49.5 37.1667,49.5 48.5,49.5C 48.5,50.8333 48.5,52.1667 48.5,53.5C 37.1667,53.5 25.8333,53.5 14.5,53.5C 14.5,52.1667 14.5,50.8333 14.5,49.5 Z"/></g>
<g><path style="opacity:1" fill="#eaf1f1" d="M 50.5,49.5 C 51.8333,49.5 53.1667,49.5 54.5,49.5C 54.5,50.8333 54.5,52.1667 54.5,53.5C 53.1667,53.5 51.8333,53.5 50.5,53.5C 50.5,52.1667 50.5,50.8333 50.5,49.5 Z"/></g>
<g><path style="opacity:1" fill="#eaf1f1" d="M 56.5,49.5 C 57.8333,49.5 59.1667,49.5 60.5,49.5C 60.5,50.8333 60.5,52.1667 60.5,53.5C 59.1667,53.5 57.8333,53.5 56.5,53.5C 56.5,52.1667 56.5,50.8333 56.5,49.5 Z"/></g>
<g><path style="opacity:0.995" fill="#00bdbc" d="M -0.5,55.5 C 20.8333,55.5 42.1667,55.5 63.5,55.5C 63.5,56.8333 63.5,58.1667 63.5,59.5C 42.1667,59.5 20.8333,59.5 -0.5,59.5C -0.5,58.1667 -0.5,56.8333 -0.5,55.5 Z"/></g>
</svg>
